<svg width="32" height="32" viewBox="0 0 32 32" fill="none" xmlns="http://www.w3.org/2000/svg">
<path fill-rule="evenodd" clip-rule="evenodd" d="M16 32C24.8366 32 32 24.8366 32 16C32 7.16344 24.8366 0 16 0C7.16344 0 0 7.16344 0 16C0 24.8366 7.16344 32 16 32ZM14.6668 9.33333C14.6668 8.59695 15.2638 8 16.0001 8C16.7365 8 17.3335 8.59695 17.3335 9.33333V13.6668C17.3335 14.2191 17.7812 14.6668 18.3335 14.6668H22.6667C23.403 14.6668 24 15.2638 24 16.0001C24 16.7365 23.403 17.3335 22.6667 17.3335H18.3335C17.7812 17.3335 17.3335 17.7812 17.3335 18.3335V22.6667C17.3335 23.403 16.7365 24 16.0001 24C15.2638 24 14.6668 23.403 14.6668 22.6667V18.3335C14.6668 17.7812 14.2191 17.3335 13.6668 17.3335H9.33333C8.59695 17.3335 8 16.7365 8 16.0001C8 15.2638 8.59695 14.6668 9.33333 14.6668H13.6668C14.2191 14.6668 14.6668 14.2191 14.6668 13.6668V9.33333Z" fill="#A68A65"/>
</svg>
