<svg width="24" height="24" viewBox="0 0 24 24" fill="none" xmlns="http://www.w3.org/2000/svg">
<path d="M6.6 19.1112L5.7 20M17.4 19.1112L18.3 20M3.9 12.0007V12.8895C3.9 15.8226 3.9 17.2891 4.8225 18.2001C5.745 19.1112 7.23 19.1112 10.2 19.1112H13.8C16.77 19.1112 18.255 19.1112 19.1775 18.2001C20.1 17.2891 20.1 15.8226 20.1 12.8895V12.0007M3 12.0007H21M4.8 12.0007V6.24379C4.79968 5.70445 4.99621 5.18306 5.35355 4.77519C5.7109 4.36733 6.20512 4.10032 6.74563 4.0231C7.28614 3.94589 7.83672 4.06365 8.29644 4.35479C8.75617 4.64594 9.09425 5.09096 9.2487 5.60829L9.3 5.77894M8.4 6.66776L10.65 4.89013" stroke="white" stroke-linecap="round" stroke-linejoin="round"/>
</svg>
