<svg width="24" height="24" viewBox="0 0 24 24" fill="none" xmlns="http://www.w3.org/2000/svg">
<path d="M3 19V14.1C3.00217 13.3581 3.29462 12.6472 3.81348 12.1225C4.33235 11.5979 5.03545 11.3022 5.76923 11.3H18.2308C18.9645 11.3022 19.6677 11.5979 20.1865 12.1225C20.7054 12.6472 20.9978 13.3581 21 14.1V19M17.5385 11.3H5.07692V6.75C5.07829 6.2863 5.26108 5.84198 5.58537 5.51409C5.90965 5.1862 6.34909 5.00138 6.80769 5H17.1923C17.6509 5.00138 18.0903 5.1862 18.4146 5.51409C18.7389 5.84198 18.9217 6.2863 18.9231 6.75V11.3H17.5385Z" stroke="white" stroke-width="0.933333" stroke-linecap="round" stroke-linejoin="round"/>
<path d="M3 19V18.6429C3.0008 18.359 3.11046 18.0869 3.30504 17.8862C3.49962 17.6854 3.76329 17.5723 4.03846 17.5714H19.9615C20.2367 17.5723 20.5004 17.6854 20.695 17.8862C20.8895 18.0869 20.9992 18.359 21 18.6429V19M5.76923 11.1429V10.4286C5.77026 10.05 5.91647 9.68727 6.17591 9.41959C6.43535 9.15191 6.78694 9.00106 7.15385 9H10.6154C10.9823 9.00106 11.3339 9.15191 11.5933 9.41959C11.8528 9.68727 11.999 10.05 12 10.4286M12 10.4286V11.1429M12 10.4286C12.001 10.05 12.1472 9.68727 12.4067 9.41959C12.6661 9.15191 13.0177 9.00106 13.3846 9H16.8462C17.2131 9.00106 17.5646 9.15191 17.8241 9.41959C18.0835 9.68727 18.2297 10.05 18.2308 10.4286V11.1429" stroke="white" stroke-width="0.933333" stroke-linecap="round" stroke-linejoin="round"/>
</svg>
