<svg width="24" height="24" viewBox="0 0 24 24" fill="none" xmlns="http://www.w3.org/2000/svg">
<path d="M4.616 5.23001C4.44133 5.23001 4.295 5.17134 4.177 5.05401C4.059 4.93601 4 4.79001 4 4.61601C4 4.44134 4.059 4.29501 4.177 4.17701C4.295 4.05901 4.44133 4.00001 4.616 4.00001C4.79067 4.00001 4.93667 4.05901 5.054 4.17701C5.17133 4.29501 5.23033 4.44134 5.231 4.61601C5.23167 4.79067 5.17267 4.93667 5.054 5.05401C4.93533 5.17134 4.789 5.23034 4.615 5.23101M8.308 5.23101C8.13333 5.23101 7.987 5.17201 7.869 5.05401C7.751 4.93601 7.692 4.79001 7.692 4.61601C7.692 4.44201 7.751 4.29567 7.869 4.17701C7.987 4.05834 8.13333 3.99934 8.308 4.00001C8.48267 4.00067 8.62867 4.05967 8.746 4.17701C8.86333 4.29434 8.92233 4.44067 8.923 4.61601C8.92367 4.79134 8.86467 4.93734 8.746 5.05401C8.62733 5.17067 8.48133 5.22967 8.308 5.23101ZM12 5.23101C11.826 5.23101 11.68 5.17201 11.562 5.05401C11.444 4.93601 11.385 4.79001 11.385 4.61601C11.385 4.44201 11.444 4.29567 11.562 4.17701C11.68 4.05834 11.826 3.99934 12 4.00001C12.174 4.00067 12.3203 4.05967 12.439 4.17701C12.5577 4.29434 12.6163 4.44067 12.615 4.61601C12.6137 4.79134 12.5547 4.93734 12.438 5.05401C12.3213 5.17067 12.1753 5.23034 12 5.23101ZM4.616 8.92301C4.44133 8.92301 4.295 8.86401 4.177 8.74601C4.059 8.62801 4 8.48201 4 8.30801C4 8.13401 4.059 7.98767 4.177 7.86901C4.295 7.75034 4.44133 7.69134 4.616 7.69201C4.79067 7.69267 4.93667 7.75167 5.054 7.86901C5.17133 7.98634 5.23033 8.13267 5.231 8.30801C5.23167 8.48334 5.17267 8.62934 5.054 8.74601C4.93533 8.86267 4.789 8.92167 4.615 8.92301M4.615 12.616C4.441 12.616 4.295 12.557 4.177 12.439C4.059 12.3197 4 12.1733 4 12C4 11.8267 4.059 11.6807 4.177 11.562C4.295 11.4433 4.44133 11.3843 4.616 11.385C4.79067 11.3857 4.93667 11.4447 5.054 11.562C5.17133 11.6793 5.23033 11.8253 5.231 12C5.23167 12.1747 5.17267 12.321 5.054 12.439C4.93533 12.557 4.789 12.6157 4.615 12.615M19.385 12.615C19.2103 12.615 19.064 12.556 18.946 12.438C18.828 12.32 18.7693 12.174 18.77 12C18.7707 11.826 18.8297 11.68 18.947 11.562C19.0643 11.444 19.2103 11.385 19.385 11.385C19.5597 11.385 19.706 11.444 19.824 11.562C19.942 11.68 20.0007 11.826 20 12C19.9993 12.174 19.9403 12.3203 19.823 12.439C19.7057 12.5577 19.5597 12.6163 19.385 12.615ZM19.385 16.308C19.2103 16.308 19.064 16.249 18.946 16.131C18.828 16.013 18.769 15.8667 18.769 15.692C18.769 15.5173 18.828 15.3713 18.946 15.254C19.064 15.1367 19.21 15.0777 19.384 15.077C19.5587 15.077 19.705 15.136 19.823 15.254C19.941 15.372 20 15.518 20 15.692C20 15.866 19.941 16.0123 19.823 16.131C19.705 16.2497 19.559 16.3087 19.385 16.308ZM12 20C11.826 20 11.68 19.941 11.562 19.823C11.444 19.705 11.385 19.559 11.385 19.385C11.385 19.211 11.444 19.0647 11.562 18.946C11.68 18.8273 11.826 18.7683 12 18.769C12.174 18.7697 12.3203 18.8287 12.439 18.946C12.5577 19.0633 12.6163 19.2093 12.615 19.384C12.615 19.5587 12.556 19.705 12.438 19.823C12.32 19.941 12.174 20 12 20ZM15.692 20C15.518 20 15.372 19.941 15.254 19.823C15.136 19.705 15.077 19.559 15.077 19.385C15.077 19.211 15.136 19.0647 15.254 18.946C15.372 18.8273 15.518 18.7683 15.692 18.769C15.866 18.7697 16.0123 18.8287 16.131 18.946C16.2497 19.0633 16.3087 19.2093 16.308 19.384C16.3073 19.5587 16.2483 19.705 16.131 19.823C16.0137 19.941 15.8673 20 15.692 20ZM19.384 20C19.21 20 19.064 19.941 18.946 19.823C18.828 19.705 18.769 19.559 18.769 19.385C18.769 19.211 18.828 19.0647 18.946 18.946C19.064 18.8273 19.21 18.7683 19.384 18.769C19.558 18.7697 19.7043 18.8287 19.823 18.946C19.9417 19.0633 20.0007 19.2093 20 19.384C20 19.5587 19.941 19.705 19.823 19.823C19.705 19.941 19.558 20 19.384 20ZM19 8.42301V5.61601C19 5.43601 18.9423 5.28834 18.827 5.17301C18.7117 5.05767 18.5643 5.00001 18.385 5.00001H15.577C15.4357 5.00001 15.317 4.95201 15.221 4.85601C15.125 4.76001 15.077 4.64101 15.077 4.49901C15.077 4.35701 15.125 4.23834 15.221 4.14301C15.317 4.04767 15.4357 4.00001 15.577 4.00001H18.385C18.829 4.00001 19.209 4.15834 19.525 4.47501C19.841 4.79167 19.9993 5.17167 20 5.61501V8.42301C20 8.56501 19.952 8.68367 19.856 8.77901C19.76 8.87434 19.641 8.92234 19.499 8.92301C19.357 8.92367 19.2383 8.87567 19.143 8.77901C19.0477 8.68234 19 8.56367 19 8.42301ZM4 18.385V15.577C4 15.435 4.048 15.3163 4.144 15.221C4.24 15.1257 4.359 15.0777 4.501 15.077C4.643 15.0763 4.76167 15.1243 4.857 15.221C4.95233 15.3177 5 15.4363 5 15.577V18.384C5 18.564 5.05767 18.7117 5.173 18.827C5.28833 18.9423 5.436 19 5.616 19H8.423C8.565 19 8.68367 19.048 8.779 19.144C8.87433 19.24 8.92233 19.359 8.923 19.501C8.92367 19.643 8.87567 19.7617 8.779 19.857C8.68233 19.9523 8.56367 20 8.423 20H5.616C5.17133 20 4.791 19.8417 4.475 19.525C4.159 19.2083 4.00067 18.8283 4 18.385Z" fill="white"/>
</svg>
