<svg width="24" height="24" viewBox="0 0 24 24" fill="none" xmlns="http://www.w3.org/2000/svg">
<path d="M15.0004 5.3999C15.0004 6.19555 14.6843 6.95861 14.1217 7.52122C13.5591 8.08383 12.796 8.3999 12.0004 8.3999C11.2047 8.3999 10.4417 8.08383 9.87907 7.52122C9.31646 6.95861 9.00039 6.19555 9.00039 5.3999C9.00039 4.60425 9.31646 3.84119 9.87907 3.27858C10.4417 2.71597 11.2047 2.3999 12.0004 2.3999C12.796 2.3999 13.5591 2.71597 14.1217 3.27858C14.6843 3.84119 15.0004 4.60425 15.0004 5.3999ZM21.0004 5.9999C21.0004 6.63642 20.7475 7.24687 20.2974 7.69696C19.8474 8.14705 19.2369 8.3999 18.6004 8.3999C17.9639 8.3999 17.3534 8.14705 16.9033 7.69696C16.4532 7.24687 16.2004 6.63642 16.2004 5.9999C16.2004 5.36338 16.4532 4.75293 16.9033 4.30285C17.3534 3.85276 17.9639 3.5999 18.6004 3.5999C19.2369 3.5999 19.8474 3.85276 20.2974 4.30285C20.7475 4.75293 21.0004 5.36338 21.0004 5.9999ZM5.40039 8.3999C6.03691 8.3999 6.64736 8.14705 7.09745 7.69696C7.54753 7.24687 7.80039 6.63642 7.80039 5.9999C7.80039 5.36338 7.54753 4.75293 7.09745 4.30285C6.64736 3.85276 6.03691 3.5999 5.40039 3.5999C4.76387 3.5999 4.15342 3.85276 3.70333 4.30285C3.25325 4.75293 3.00039 5.36338 3.00039 5.9999C3.00039 6.63642 3.25325 7.24687 3.70333 7.69696C4.15342 8.14705 4.76387 8.3999 5.40039 8.3999ZM7.20039 11.0999C7.20039 10.2719 7.87239 9.5999 8.70039 9.5999H15.3004C16.1284 9.5999 16.8004 10.2719 16.8004 11.0999V16.7999C16.8004 18.0729 16.2947 19.2938 15.3945 20.194C14.4943 21.0942 13.2734 21.5999 12.0004 21.5999C10.7274 21.5999 9.50645 21.0942 8.60628 20.194C7.7061 19.2938 7.20039 18.0729 7.20039 16.7999V11.0999ZM6.00039 11.0999C6.00039 10.5443 6.16839 10.0295 6.45519 9.5999H3.90039C3.07239 9.5999 2.40039 10.2719 2.40039 11.0999V15.5999C2.40033 16.1136 2.51024 16.6215 2.72271 17.0892C2.93519 17.5569 3.24532 17.9738 3.63226 18.3117C4.0192 18.6497 4.47399 18.9009 4.96607 19.0485C5.45815 19.1961 5.97613 19.2367 6.48519 19.1675C6.16468 18.4194 5.99973 17.6138 6.00039 16.7999V11.0999ZM18.0004 16.7999C18.0004 17.6399 17.8276 18.4415 17.5156 19.1675C17.674 19.1891 17.8356 19.1999 18.0004 19.1999C18.9552 19.1999 19.8708 18.8206 20.546 18.1455C21.2211 17.4704 21.6004 16.5547 21.6004 15.5999V11.0999C21.6004 10.2719 20.9284 9.5999 20.1004 9.5999H17.5456C17.8336 10.0295 18.0004 10.5443 18.0004 11.0999V16.7999Z" fill="#A68A65"/>
</svg>
